<svg width="323" height="164" viewBox="0 0 323 164" fill="none" xmlns="http://www.w3.org/2000/svg">
<path fill-rule="evenodd" clip-rule="evenodd" d="M185.466 5.2319V3.04599H181.234H164.451H160.218V7.89975V65.5056C156.446 62.3615 151.702 60.7695 146.095 60.7695C140.579 60.7695 135.797 62.2637 131.883 65.2106C131.863 65.2259 131.843 65.2411 131.823 65.257V61.6285H127.59H126.428V52.7348V46.5442L121.186 48.0207L104.403 52.7465L101.18 53.654V57.461V61.6285H97.4216C95.0357 61.0291 92.3977 60.7695 89.155 60.7695C84.2835 60.7695 79.8989 62.4469 76.4751 65.6205C75.7137 66.3269 75.0116 67.0978 74.3722 67.9272C73.3654 66.6415 72.2006 65.5187 70.8797 64.5642C69.0399 63.2352 66.8859 62.2427 64.4783 61.6163C62.3173 61.0544 59.8816 60.7695 57.238 60.7695C50.8717 60.7695 45.7911 61.9049 42.2862 63.0114L43.73 57.935L44.7026 54.5157L42.1335 52.4526C38.3733 49.4343 33.5602 47.9667 27.4191 47.9667C23.0415 47.9667 19.0582 49.0525 15.5782 51.1937C12.3622 53.1727 9.61937 56.0219 7.42532 59.6632C3.72272 65.8088 1.68359 74.1812 1.68359 83.2377C1.68359 87.5749 2.11142 91.7193 2.95561 95.5583C3.89656 99.8353 5.33751 103.632 7.23666 106.843C11.7522 114.475 18.6539 118.508 27.1942 118.508C33.0497 118.508 37.3422 117.383 40.8209 114.893C41.8661 115.537 43.0049 116.096 44.2319 116.565C47.6502 117.873 51.709 118.508 56.6392 118.508C60.5524 118.508 64.1893 118.197 67.4498 117.582C69.8248 117.134 71.9622 116.533 73.8301 115.788C77.4505 117.509 82.0711 118.508 86.6082 118.508C92.8771 118.508 98.195 116.608 101.986 113.014C102.803 112.239 103.542 111.393 104.202 110.483C104.724 111.338 105.311 112.138 105.963 112.88C107.615 114.76 109.639 116.201 111.978 117.167C114.278 118.114 116.883 118.594 119.723 118.594C123.924 118.594 127.978 117.497 130.05 115.8L131.823 114.348V113.604C135.915 116.83 141.019 118.508 146.845 118.508C150.973 118.508 154.535 118.138 157.736 117.377C158.587 117.174 159.412 116.944 160.218 116.685V117.649H164.451H177.75H181.234H181.983H185.466H195.281H198.766H199.514H202.998H216.297H220.53H222.141H235.441H238.923H239.673H243.156H256.455H260.689H262.3H279.083H283.315V112.929C287.334 116.523 292.502 118.508 298.412 118.508C302.012 118.508 305.365 117.782 308.382 116.35C311.368 114.93 313.973 112.848 316.123 110.158C318.214 107.543 319.824 104.418 320.908 100.869C321.964 97.4124 322.5 93.6204 322.5 89.5957C322.5 85.5906 321.964 81.8127 320.906 78.3668C319.821 74.8301 318.211 71.714 316.12 69.1049C313.969 66.4219 311.365 64.3431 308.38 62.926C305.364 61.495 302.01 60.7695 298.412 60.7695C292.378 60.7695 286.992 62.8599 282.835 66.8151C282.018 67.5942 281.253 68.439 280.544 69.3439C279.957 68.3225 279.28 67.3781 278.515 66.5178C276.848 64.6433 274.797 63.2103 272.418 62.2568C270.096 61.3268 267.448 60.8551 264.547 60.8551C263.241 60.8551 261.952 60.9463 260.689 61.1269V45.3455V40.491H256.455H239.673H235.441V45.3455V64.7637C231.428 62.0781 225.881 60.7695 218.545 60.7695C212.977 60.7695 207.563 61.487 202.998 62.7898V61.6285H200.083C200.881 60.6609 201.539 59.5828 202.042 58.4085C202.776 56.6983 203.148 54.8766 203.148 52.9924C203.148 51.1088 202.776 49.2864 202.042 47.5762C201.359 45.9835 200.395 44.5662 199.176 43.3633C196.794 41.0121 193.669 39.718 190.374 39.718C188.666 39.718 187.004 40.0693 185.466 40.7321V29.4598C188.887 26.4521 192.902 24.4207 198.069 24.841C202.125 25.1708 205.907 26.7301 209.546 28.1708C213.198 29.6173 216.921 31.2295 220.949 31.7604C226.871 32.5412 231.423 30.2222 235.285 26.5886C229.235 28.5909 224.376 25.0506 220.382 21.5196C226.988 19.0102 231.548 14.4448 235.285 9.32901C231.138 12.6504 226.495 13.9973 220.949 12.4952C216.83 11.3793 213.168 9.25126 209.546 7.31093C205.951 5.38444 202.236 3.29301 198.069 2.37545C196.885 2.11473 195.747 1.99067 194.653 1.99067C191.228 1.99023 188.22 3.20386 185.466 5.2319V5.2319ZM29.2699 91.3373C28.4502 89.3451 27.9798 86.3303 27.9798 83.0664C27.9798 79.3735 28.4087 76.2383 29.1862 74.2377C30.0149 72.1098 30.8421 72.1098 31.3899 72.1098C33.153 72.1098 33.7008 72.4636 34.1848 72.7757L36.1034 74.0134L38.5813 81.7356L39.1274 83.4366C37.4463 84.7773 36.066 86.3387 35.008 88.1004C34.0698 89.6621 33.3825 91.3748 32.9504 93.2246C32.9137 93.2405 32.8787 93.2547 32.8447 93.2659C32.5428 93.3667 31.9876 93.4205 31.2399 93.4205C30.8792 93.4205 30.128 93.4205 29.2699 91.3373V91.3373Z" fill="#D3D2D2" stroke="#D3D2D2" stroke-width="0.288" stroke-miterlimit="22.9256"/>
<path fill-rule="evenodd" clip-rule="evenodd" d="M164.451 7.89975V82.5661C162.713 72.2316 156.722 65.6232 146.095 65.6232C136.363 65.6232 130.294 70.9494 127.59 78.8031V66.4833H122.195V52.7348L105.413 57.461V66.4833H101.292V68.2871C97.6765 66.2811 94.3332 65.6232 89.155 65.6232C81.0914 65.6232 75.4177 71.2464 74.4071 78.9329C72.7361 69.3138 66.3784 65.6232 57.2381 65.6232C48.4723 65.6232 42.4786 67.8576 39.1067 69.3181L42.553 80.0588C45.5505 78.5978 49.9703 77.2234 53.9417 77.2234C57.313 77.2234 59.1861 77.996 59.1861 80.5738V81.9493C47.348 83.1518 36.6343 86.4175 36.6343 98.1881C36.6343 98.5794 36.6449 98.9632 36.6643 99.3377L35.9599 96.8995C34.6114 97.7586 33.8619 98.275 31.2399 98.275C25.771 98.275 23.7477 90.3692 23.7477 83.0664C23.7477 75.3331 25.396 67.2561 31.3899 67.2561C33.7873 67.2561 35.0613 67.7715 36.2598 68.5447L39.7061 56.4297C36.7098 54.0234 32.7384 52.8208 27.4191 52.8208C12.06 52.8208 5.91626 68.2871 5.91626 83.2377C5.91626 98.3604 11.6849 113.655 27.1942 113.655C32.8885 113.655 36.7098 112.538 39.7061 109.875L38.7828 106.676C41.7996 111.463 47.9162 113.655 56.6392 113.655C64.2681 113.655 70.2258 112.402 73.9819 110.513C76.8625 112.273 81.576 113.655 86.6082 113.655C97.5462 113.655 103.765 107.21 103.765 97.9305C103.765 92.6037 102.117 88.5647 94.3249 84.5263C91.927 83.2377 90.7286 81.7774 90.7286 80.0588C90.7286 78.77 91.628 77.6529 93.351 77.6529C95.4489 77.6529 97.6962 78.8552 98.8947 79.9729L101.292 73.489V79.1139H105.413V98.6174C105.413 107.297 110.059 113.741 119.723 113.741C123.544 113.741 126.541 112.71 127.59 111.85V100.079C126.391 100.681 125.867 100.938 124.668 100.938C123.094 100.938 122.195 100.164 122.195 96.7279V79.1139H127.484C126.449 82.247 125.941 85.7699 125.941 89.5107C125.941 102.571 132.759 113.655 146.845 113.655C155.012 113.655 159.806 112.108 163.702 110.046L160.106 98.4461C157.783 99.6501 153.962 100.766 149.092 100.766C144.597 100.766 142.873 99.2195 141.9 96.0406L164.451 92.5013V112.796H181.234V7.89975H164.451ZM145.346 76.5358C148.268 76.5358 149.467 79.715 149.467 85.5583L140.701 87.1903C140.101 80.5738 141.75 76.5358 145.346 76.5358ZM74.845 85.9155C75.8028 89.0777 78.0793 91.9626 82.8618 94.322C85.8587 95.782 86.4578 97.1575 86.4578 98.5324C86.4578 99.8216 85.4089 100.681 83.9853 100.681C81.7378 100.681 79.0404 99.3917 77.467 98.0166L74.845 105.534V85.9155ZM52.1434 97.3297C52.1434 91.8301 55.2901 90.5413 59.1861 90.3692V102.915C58.7365 103.172 58.2125 103.172 57.313 103.172C54.0912 103.172 52.1434 101.368 52.1434 97.3297V97.3297Z" fill="#D3D2D2" stroke="#D3D2D2" stroke-width="0.288" stroke-miterlimit="22.9256"/>
<path fill-rule="evenodd" clip-rule="evenodd" d="M181.833 52.9924C181.833 57.6323 185.654 61.4133 190.375 61.4133C195.094 61.4133 198.916 57.6323 198.916 52.9924C198.916 48.3525 195.094 44.5719 190.375 44.5719C185.654 44.5719 181.833 48.3525 181.833 52.9924V52.9924Z" fill="#D3D2D2" stroke="#D3D2D2" stroke-width="0.288" stroke-miterlimit="22.9256"/>
<path fill-rule="evenodd" clip-rule="evenodd" d="M181.983 66.4833V112.796H198.766V66.4833H181.983Z" fill="#D3D2D2" stroke="#D3D2D2" stroke-width="0.288" stroke-miterlimit="22.9256"/>
<path fill-rule="evenodd" clip-rule="evenodd" d="M199.514 112.796H216.297V77.6529C216.822 77.567 217.646 77.3951 218.545 77.3951C221.017 77.3951 222.141 79.0274 222.141 81.348V112.796H238.924V81.1752C238.924 71.0365 233.08 65.6232 218.545 65.6232C210.753 65.6232 203.935 67.0841 199.514 69.146V112.796Z" fill="#D3D2D2" stroke="#D3D2D2" stroke-width="0.288" stroke-miterlimit="22.9256"/>
<path fill-rule="evenodd" clip-rule="evenodd" d="M256.455 45.3455H239.673V112.796H256.455V77.4809C257.055 77.2234 257.655 77.2234 258.479 77.2234C261.176 77.2234 262.3 78.77 262.3 81.2613V112.796H279.083V95.7926C280.975 106.472 287.9 113.655 298.412 113.655C310.85 113.655 318.266 103.602 318.266 89.5957C318.266 75.6765 310.85 65.6232 298.412 65.6232C287.955 65.6232 280.983 72.8178 279.083 83.461V80.832C279.083 72.0677 274.512 65.7091 264.547 65.7091C261.176 65.7091 258.479 66.3966 256.455 67.1702V45.3455ZM295.191 89.2527C295.191 82.0349 295.79 77.567 298.412 77.567C301.034 77.567 301.634 81.9493 301.634 89.2527C301.634 96.4695 301.034 100.766 298.412 100.766C295.79 100.766 295.191 96.5561 295.191 89.2527V89.2527Z" fill="#D3D2D2" stroke="#D3D2D2" stroke-width="0.288" stroke-miterlimit="22.9256"/>
<path d="M57.313 103.172C54.0915 103.172 52.1432 101.368 52.1432 97.3297C52.1432 91.8303 55.2905 90.5412 59.1859 90.3692V102.915C58.7368 103.172 58.2125 103.172 57.313 103.172V103.172ZM74.845 105.534V85.9155C75.8028 89.0777 78.0793 91.9626 82.8616 94.322C85.8585 95.7822 86.4581 97.1577 86.4581 98.5326C86.4581 99.8212 85.4087 100.68 83.9855 100.68C81.7378 100.68 79.0407 99.3917 77.4674 98.0166L74.845 105.534ZM140.701 87.1904C140.101 80.574 141.75 76.536 145.346 76.536C148.268 76.536 149.467 79.7149 149.467 85.558L140.701 87.1904ZM181.234 7.89975H164.451V82.5663C162.713 72.2312 156.722 65.6232 146.096 65.6232C136.363 65.6232 130.293 70.9496 127.59 78.8027V66.4829H122.195V52.735L105.413 57.4605V66.4829H101.292V68.2867C97.6765 66.2811 94.3336 65.6232 89.155 65.6232C81.0913 65.6232 75.4182 71.2466 74.4074 78.9331C72.7359 69.314 66.3783 65.6232 57.238 65.6232C48.4723 65.6232 42.4781 67.8573 39.1067 69.3181L42.5534 80.0586C45.5504 78.598 49.9708 77.2229 53.9415 77.2229C57.313 77.2229 59.1859 77.996 59.1859 80.574V81.9491C47.3482 83.1521 36.6343 86.4168 36.6343 98.1881C36.6343 98.5796 36.6449 98.9625 36.6641 99.3373L35.9597 96.8997C34.6113 97.7586 33.8624 98.2752 31.2397 98.2752C25.7705 98.2752 23.7475 90.3692 23.7475 83.0664C23.7475 75.3324 25.396 67.2557 31.3898 67.2557C33.7873 67.2557 35.0611 67.7717 36.2597 68.5447L39.7061 56.4295C36.7097 54.0234 32.7382 52.8205 27.4189 52.8205C12.06 52.8205 5.91626 68.2867 5.91626 83.2379C5.91626 98.3602 11.685 113.655 27.194 113.655C32.8883 113.655 36.7097 112.538 39.7061 109.874L38.7827 106.676C41.7994 111.463 47.9165 113.655 56.639 113.655C64.2679 113.655 70.2258 112.402 73.9817 110.513C76.8624 112.272 81.5758 113.655 86.608 113.655C97.5462 113.655 103.765 107.21 103.765 97.9301C103.765 92.6039 102.117 88.5647 94.3247 84.5259C91.9273 83.2379 90.7285 81.777 90.7285 80.0586C90.7285 78.77 91.6278 77.6529 93.3508 77.6529C95.4489 77.6529 97.6962 78.8555 98.8952 79.9725L101.292 73.489V79.1134H105.413V98.6176C105.413 107.297 110.058 113.74 119.723 113.74C123.544 113.74 126.541 112.71 127.59 111.85V100.079C126.391 100.68 125.866 100.938 124.668 100.938C123.094 100.938 122.195 100.165 122.195 96.7281V79.1134H127.484C126.449 82.2472 125.941 85.7699 125.941 89.5102C125.941 102.571 132.759 113.655 146.845 113.655C155.011 113.655 159.806 112.108 163.702 110.046L160.106 98.4461C157.783 99.6495 153.962 100.766 149.092 100.766C144.597 100.766 142.873 99.2195 141.9 96.0402L164.451 92.5015V112.795H181.234V7.89975ZM57.313 104.143C58.2906 104.143 58.9361 104.143 59.565 103.783L60.0329 103.514V102.915V90.3692V89.3604L59.1538 89.399C55.781 89.5483 51.297 90.5319 51.297 97.3297C51.297 101.723 53.4336 104.143 57.313 104.143V104.143ZM57.238 66.5941C61.8318 66.5941 65.5105 67.5693 68.172 69.4923C69.5611 70.4959 70.7134 71.7863 71.5974 73.3287C72.5238 74.9436 73.1895 76.8928 73.577 79.1225L73.9988 81.5486V85.9155V105.534V109.444L73.6414 109.624C69.7203 111.598 63.6819 112.684 56.639 112.684C52.3248 112.684 48.6912 112.131 45.8393 111.04C42.9869 109.949 40.8438 108.289 39.4692 106.107L37.7145 103.323L37.5092 99.2819C37.4909 98.912 37.4811 98.5442 37.4811 98.1881C37.4811 93.1551 39.5667 89.4855 43.8565 86.9698C47.3593 84.9158 52.254 83.6278 59.2609 82.9155L60.0329 82.8374V81.9491V80.574C60.0329 76.2522 55.7644 76.2522 53.9415 76.2522C50.0903 76.2522 45.9392 77.4975 43.0459 78.7822L40.1932 69.8922C43.8245 68.3875 49.361 66.5941 57.238 66.5941V66.5941ZM89.155 66.5941C94.3616 66.5941 97.5508 67.2896 100.924 69.1611L101.795 69.6442L100.512 73.1102L98.5244 78.4883C97.1385 77.5075 95.2164 76.6818 93.3508 76.6818C90.9677 76.6818 89.8819 78.4324 89.8819 80.0586C89.8819 82.1791 91.218 83.9281 93.9655 85.4054L93.9711 85.4083L93.9761 85.4112C97.5412 87.2589 99.9314 89.1905 101.283 91.3175C102.43 93.1203 102.919 95.0987 102.919 97.9301C102.919 107.031 96.6686 112.684 86.6081 112.684C81.2465 112.684 76.776 111.12 74.38 109.655L74.3302 109.625L75.6314 105.895L77.8641 99.4935C79.501 100.63 81.8442 101.651 83.9857 101.651C85.909 101.651 87.3042 100.34 87.3042 98.5326C87.3042 96.3594 86.0749 94.833 83.1964 93.4294C81.016 92.3547 79.2691 91.1053 78.0044 89.7182C76.8845 88.4895 76.1131 87.1418 75.6446 85.5974L74.7678 82.7012L75.2445 79.0777C75.7173 75.4829 77.2471 72.3958 79.6685 70.1508C82.1782 67.8238 85.4584 66.5941 89.1552 66.5941H89.155ZM121.349 53.9727V66.4829V67.4536H122.195H126.743V78.1434H122.195H121.349V79.1134V96.7281C121.349 98.6186 121.611 99.886 122.173 100.717C122.896 101.786 123.943 101.908 124.668 101.908C125.54 101.908 126.127 101.776 126.743 101.528V111.302C125.649 111.95 123.131 112.77 119.723 112.77C117.471 112.77 115.443 112.405 113.696 111.684C112.06 111.01 110.662 110.02 109.54 108.745C107.393 106.303 106.26 102.801 106.26 98.6176V79.1134V78.1434H105.413H102.139V73.489V68.7132V68.2867V67.4536H105.413H106.26V66.4829V58.2217L121.349 53.9727ZM27.4189 53.7918C32.1844 53.7918 35.8842 54.786 38.7016 56.8288L35.7601 67.1718C34.6683 66.6241 33.3793 66.285 31.3898 66.285C28.3335 66.285 25.968 68.2149 24.5476 71.8655C23.1868 75.3654 22.901 79.8881 22.901 83.0664C22.901 87.2209 23.5318 91.0416 24.677 93.8237C26.1373 97.3703 28.4067 99.2455 31.2397 99.2455C33.4458 99.2455 34.4678 98.8856 35.4738 98.3046L35.8603 99.6434L37.2957 104.615L37.9789 106.981L38.7101 109.512C35.962 111.73 32.4692 112.684 27.194 112.684C23.6269 112.684 20.4415 111.839 17.7262 110.173C15.2455 108.651 13.1305 106.43 11.4398 103.572C9.87316 100.925 8.67617 97.7498 7.88067 94.1327C7.13846 90.7602 6.76269 87.095 6.76269 83.2379C6.76269 75.3525 8.48202 68.1564 11.6041 62.9746C13.3358 60.1011 15.4806 57.8641 17.9797 56.3267C20.7129 54.6445 23.8889 53.7918 27.4189 53.7918V53.7918ZM139.952 88.3132L140.836 88.1478L149.603 86.5165L150.314 86.3837V85.558C150.314 83.0864 150.314 75.5647 145.346 75.5647C143.836 75.5647 142.538 76.2005 141.592 77.4029C140.05 79.3651 139.451 82.7842 139.859 87.29L139.952 88.3132ZM180.388 8.87103V111.825H165.298V92.5015V91.3897L164.336 91.5402L141.785 95.0777L140.757 95.2402L141.101 96.3624C142.286 100.231 144.526 101.737 149.092 101.737C152.967 101.737 156.737 101.015 159.608 99.7372L162.643 109.526C160.716 110.483 158.809 111.172 156.703 111.673C153.846 112.353 150.621 112.684 146.845 112.684C143.553 112.684 140.563 112.058 137.96 110.822C135.532 109.67 133.439 107.99 131.739 105.83C130.118 103.77 128.87 101.296 128.027 98.4784C127.205 95.7245 126.788 92.7075 126.788 89.5102C126.788 85.8303 127.288 82.4475 128.275 79.4569L128.296 79.3951L128.377 79.1595C129.716 75.2713 131.833 72.2169 134.672 70.0797C137.743 67.767 141.587 66.5941 146.096 66.5941C151.04 66.5941 155.065 68.0634 158.061 70.9613C160.895 73.7028 162.765 77.6694 163.62 82.7499L165.298 82.5663V8.87103H180.388Z" fill="#D3D2D2" stroke="#D3D2D2" stroke-width="0.288" stroke-miterlimit="22.9256"/>
<path d="M190.374 44.5719C185.654 44.5719 181.833 48.3527 181.833 52.9922C181.833 57.632 185.654 61.4133 190.374 61.4133C195.094 61.4133 198.916 57.632 198.916 52.9922C198.916 48.3527 195.094 44.5719 190.374 44.5719ZM190.374 45.5426C194.617 45.5426 198.069 48.8847 198.069 52.9922C198.069 57.1003 194.617 60.4423 190.374 60.4423C186.131 60.4423 182.679 57.1003 182.679 52.9922C182.679 48.8847 186.131 45.5426 190.374 45.5426Z" fill="#D3D2D2" stroke="#D3D2D2" stroke-width="0.288" stroke-miterlimit="22.9256"/>
<path d="M198.766 66.4827H181.983V112.795H198.766V66.4827ZM197.919 111.825H182.829V67.4534H197.919V111.825Z" fill="#D3D2D2" stroke="#D3D2D2" stroke-width="0.288" stroke-miterlimit="22.9256"/>
<path d="M218.545 65.6232C210.753 65.6232 203.935 67.0841 199.514 69.1462V112.795H216.297V77.6529C216.821 77.567 217.645 77.3951 218.545 77.3951C221.017 77.3951 222.141 79.027 222.141 81.348V112.795H238.924V81.1759C238.924 71.0367 233.08 65.6232 218.545 65.6232V65.6232ZM218.545 66.5941C222.071 66.5941 225.143 66.9239 227.676 67.5748C230.12 68.2027 232.146 69.1515 233.701 70.3935C236.646 72.7483 238.078 76.2749 238.078 81.1759V111.825H222.988V81.348C222.988 78.2646 221.326 76.4242 218.545 76.4242C217.721 76.4242 216.978 76.5536 216.435 76.6478C216.342 76.6638 216.256 76.6785 216.177 76.6918L215.45 76.8106V77.6529V111.825H200.361V69.8073C205.038 67.7613 211.62 66.5941 218.545 66.5941V66.5941Z" fill="#D3D2D2" stroke="#D3D2D2" stroke-width="0.288" stroke-miterlimit="22.9256"/>
<path d="M298.412 100.766C295.79 100.766 295.191 96.5558 295.191 89.2531C295.191 82.0352 295.79 77.5668 298.412 77.5668C301.035 77.5668 301.634 81.9491 301.634 89.2531C301.634 96.4694 301.035 100.766 298.412 100.766ZM256.456 45.3454H239.673V112.796H256.456V77.4808C257.055 77.2234 257.655 77.2234 258.479 77.2234C261.176 77.2234 262.3 78.7702 262.3 81.2611V112.796H279.083V95.7924C280.975 106.472 287.9 113.655 298.412 113.655C310.85 113.655 318.267 103.602 318.267 89.5955C318.267 75.6763 310.85 65.6236 298.412 65.6236C287.955 65.6236 280.983 72.8176 279.083 83.4608V80.8316C279.083 72.0675 274.512 65.7094 264.547 65.7094C261.176 65.7094 258.479 66.3964 256.456 67.17V45.3454ZM298.412 101.737C302.167 101.737 302.481 95.5692 302.481 89.2531C302.481 82.8484 302.167 76.5959 298.412 76.5959C296.753 76.5959 295.606 77.8923 295.001 80.4493C294.547 82.3698 294.344 85.0848 294.344 89.2531C294.344 95.5692 294.658 101.737 298.412 101.737V101.737ZM298.412 66.5937C304.167 66.5937 308.997 68.825 312.38 73.0466C314.003 75.0718 315.26 77.512 316.115 80.3004C316.981 83.1232 317.421 86.2508 317.421 89.5955C317.421 92.9627 316.981 96.1075 316.115 98.9436C315.259 101.742 314.003 104.191 312.38 106.222C309 110.45 304.17 112.684 298.412 112.684C288.723 112.684 281.808 106.297 279.912 95.5992L278.85 89.6035L279.912 83.6552C280.824 78.5422 282.958 74.2681 286.079 71.2981C287.664 69.7892 289.495 68.6236 291.52 67.8333C293.626 67.0111 295.944 66.5937 298.412 66.5937V66.5937ZM255.609 46.3162V67.17V68.5165L256.724 68.0912C259.172 67.1546 261.805 66.6797 264.547 66.6797C269.097 66.6797 272.6 68.0252 274.959 70.677C277.103 73.0872 278.236 76.5986 278.236 80.8316V83.4608V86.138V95.7924V111.825H263.146V81.2611C263.146 78.0311 261.489 76.2519 258.479 76.2519C257.598 76.2519 256.901 76.2519 256.158 76.5722L255.609 76.8085V77.4808V111.825H240.52V46.3162H255.609Z" fill="#D3D2D2" stroke="#D3D2D2" stroke-width="0.288" stroke-miterlimit="22.9256"/>
<path fill-rule="evenodd" clip-rule="evenodd" d="M184.283 3.46776V1.28184H180.051H163.268H159.035V6.13539V63.7413C155.263 60.5971 150.519 59.0053 144.912 59.0053C139.395 59.0053 134.614 60.4996 130.7 63.4465C130.68 63.4616 130.659 63.4769 130.639 63.4926V59.8644H126.406H125.244V50.9706V44.7801L120.003 46.2564L103.22 50.9823L99.9972 51.8899V55.6966V59.8644H96.2382C93.8523 59.265 91.2143 59.0053 87.9717 59.0053C83.1001 59.0053 78.7157 60.6826 75.2917 63.8564C74.5303 64.5627 73.8282 65.3335 73.1887 66.1631C72.1822 64.8771 71.0173 63.7545 69.6963 62.8C67.8565 61.4709 65.7025 60.4785 63.295 59.8521C61.134 59.2901 58.6984 59.0053 56.0548 59.0053C49.6883 59.0053 44.6079 60.1408 41.103 61.2472L42.5466 56.1709L43.5193 52.7516L40.9503 50.6883C37.19 47.6699 32.3768 46.2026 26.2359 46.2026C21.8581 46.2026 17.8749 47.2884 14.3948 49.4295C11.179 51.4086 8.4362 54.2577 6.2421 57.8988C2.53931 64.0447 0.500244 72.4168 0.500244 81.4735C0.500244 85.8106 0.928255 89.9551 1.77245 93.7939C2.71334 98.0712 4.15428 101.868 6.05325 105.078C10.5689 112.711 17.4705 116.744 26.0108 116.744C31.8666 116.744 36.1591 115.619 39.6377 113.129C40.6829 113.773 41.8215 114.331 43.0485 114.801C46.4668 116.108 50.5256 116.744 55.4558 116.744C59.3691 116.744 63.0059 116.433 66.2666 115.818C68.6414 115.37 70.7788 114.769 72.6469 114.024C76.2671 115.745 80.8877 116.744 85.425 116.744C91.6937 116.744 97.0119 114.844 100.803 111.25C101.62 110.474 102.359 109.629 103.018 108.718C103.541 109.574 104.128 110.374 104.78 111.116C106.432 112.996 108.456 114.437 110.795 115.403C113.094 116.35 115.7 116.83 118.539 116.83C122.741 116.83 126.795 115.733 128.867 114.036L130.639 112.584V111.84C134.732 115.065 139.836 116.744 145.661 116.744C149.789 116.744 153.352 116.374 156.552 115.612C157.404 115.41 158.228 115.18 159.035 114.921V115.885H163.268H176.567H180.051H180.799H184.283H194.098H197.582H198.331H201.815H215.114H219.346H220.958H234.257H237.74H238.489H241.973H255.272H259.505H261.116H277.899H282.132V111.165C286.151 114.759 291.319 116.744 297.229 116.744C300.828 116.744 304.182 116.017 307.198 114.586C310.185 113.166 312.79 111.083 314.94 108.393C317.031 105.778 318.64 102.653 319.725 99.1053C320.781 95.6481 321.316 91.8563 321.316 87.8314C321.316 83.8263 320.78 80.0486 319.723 76.6027C318.638 73.066 317.027 69.9499 314.936 67.3407C312.786 64.6576 310.182 62.579 307.197 61.1616C304.18 59.7309 300.826 59.0053 297.229 59.0053C291.195 59.0053 285.808 61.0958 281.652 65.0509C280.834 65.8301 280.069 66.6748 279.361 67.5797C278.773 66.5581 278.097 65.6138 277.332 64.7537C275.664 62.8791 273.613 61.4461 271.235 60.4927C268.913 59.5626 266.265 59.0907 263.364 59.0907C262.057 59.0907 260.769 59.182 259.505 59.3625V43.5814V38.7267H255.272H238.489H234.257V43.5814V62.9995C230.245 60.3137 224.698 59.0053 217.361 59.0053C211.794 59.0053 206.38 59.7229 201.815 61.0256V59.8644H198.9C199.698 58.8967 200.355 57.8187 200.859 56.6442C201.593 54.9342 201.965 53.1124 201.965 51.2283C201.965 49.3445 201.593 47.5221 200.859 45.8121C200.176 44.2192 199.212 42.8021 197.993 41.5991C195.611 39.248 192.485 37.9537 189.191 37.9537C187.482 37.9537 185.82 38.3051 184.283 38.9677V27.6957C187.704 24.6877 191.718 22.6563 196.885 23.0768C200.941 23.4066 204.724 24.9657 208.363 26.4066C212.015 27.8529 215.738 29.4653 219.766 29.9961C225.687 30.777 230.239 28.458 234.102 24.8242C228.051 26.8266 223.193 23.2864 219.198 19.7555C225.804 17.2461 230.365 12.6807 234.102 7.5648C229.954 10.886 225.312 12.2331 219.766 10.7311C215.646 9.61519 211.985 7.48712 208.363 5.54657C204.768 3.62029 201.053 1.52879 196.885 0.61131C195.701 0.35044 194.563 0.226526 193.469 0.226526C190.045 0.226093 187.037 1.43964 184.283 3.46776V3.46776ZM28.0866 89.573C27.2668 87.5807 26.7966 84.566 26.7966 81.3022C26.7966 77.6094 27.2253 74.4742 28.003 72.4733C28.8314 70.3455 29.6587 70.3455 30.2066 70.3455C31.9696 70.3455 32.5175 70.6995 33.0015 71.0113L34.92 72.2492L37.3981 79.9715L37.9442 81.6724C36.263 83.0132 34.8828 84.5743 33.8247 86.336C32.8865 87.8978 32.1992 89.6106 31.7672 91.4605C31.7303 91.4762 31.6953 91.4905 31.6615 91.5016C31.3597 91.6023 30.8044 91.6563 30.0568 91.6563C29.6959 91.6563 28.9446 91.6563 28.0866 89.573V89.573Z" fill="url(#paint0_linear)"/>
<path fill-rule="evenodd" clip-rule="evenodd" d="M163.268 6.13538V80.8019C161.529 70.4675 155.539 63.8588 144.912 63.8588C135.18 63.8588 129.11 69.1852 126.406 77.0389V64.7189H121.012V50.9706L104.229 55.6966V64.7189H100.108V66.5229C96.4933 64.5167 93.1498 63.8588 87.9717 63.8588C79.9081 63.8588 74.2345 69.4823 73.2237 77.1688C71.5528 67.5497 65.195 63.8588 56.0548 63.8588C47.2889 63.8588 41.2954 66.0934 37.9235 67.5538L41.3699 78.2946C44.3672 76.8337 48.7871 75.4592 52.7585 75.4592C56.1298 75.4592 58.0028 76.2318 58.0028 78.8097V80.1851C46.1647 81.3875 35.4509 84.6531 35.4509 96.4238C35.4509 96.8153 35.4615 97.1988 35.4809 97.5736L34.7765 95.1354C33.428 95.9942 32.6786 96.5108 30.0568 96.5108C24.5877 96.5108 22.5643 88.6049 22.5643 81.3022C22.5643 73.5687 24.2128 65.4919 30.2066 65.4919C32.604 65.4919 33.878 66.0073 35.0766 66.7803L38.5229 54.6655C35.5265 52.2591 31.555 51.0567 26.2358 51.0567C10.8768 51.0567 4.73303 66.5229 4.73303 81.4735C4.73303 96.5963 10.5018 111.891 26.0108 111.891C31.705 111.891 35.5265 110.773 38.5229 108.111L37.5994 104.912C40.6162 109.699 46.7328 111.891 55.4558 111.891C63.0848 111.891 69.0426 110.638 72.7987 108.748C75.6792 110.509 80.3926 111.891 85.425 111.891C96.363 111.891 102.582 105.446 102.582 96.1664C102.582 90.8396 100.933 86.8006 93.1415 82.7619C90.7436 81.4735 89.5452 80.013 89.5452 78.2946C89.5452 77.0056 90.4446 75.8887 92.1676 75.8887C94.2655 75.8887 96.5129 77.0911 97.7115 78.2086L100.108 71.7246V77.3497H104.229V96.8533C104.229 105.533 108.875 111.976 118.539 111.976C122.361 111.976 125.358 110.946 126.406 110.086V98.3146C125.208 98.9164 124.684 99.1737 123.485 99.1737C121.911 99.1737 121.012 98.4003 121.012 94.9638V77.3497H126.3C125.266 80.4828 124.758 84.0056 124.758 87.7465C124.758 100.807 131.576 111.891 145.661 111.891C153.828 111.891 158.623 110.344 162.519 108.282L158.923 96.6818C156.6 97.8857 152.779 99.0018 147.909 99.0018C143.414 99.0018 141.69 97.4554 140.717 94.2765L163.268 90.7369V111.032H180.051V6.13538H163.268ZM144.163 74.7717C147.085 74.7717 148.284 77.9506 148.284 83.794L139.518 85.426C138.918 78.8096 140.567 74.7717 144.163 74.7717ZM73.6618 84.1513C74.6196 87.3133 76.8961 90.1984 81.6786 92.5579C84.6754 94.0178 85.2744 95.3934 85.2744 96.7682C85.2744 98.0572 84.2254 98.9164 82.802 98.9164C80.5545 98.9164 77.8572 97.6273 76.2837 96.2522L73.6618 103.77V84.1513ZM50.96 95.5653C50.96 90.066 54.107 88.7769 58.0028 88.605V101.151C57.5533 101.408 57.0293 101.408 56.1298 101.408C52.9078 101.408 50.96 99.6038 50.96 95.5653V95.5653Z" fill="url(#paint1_linear)"/>
<path fill-rule="evenodd" clip-rule="evenodd" d="M180.649 51.2283C180.649 55.8681 184.471 59.6489 189.191 59.6489C193.911 59.6489 197.732 55.8681 197.732 51.2283C197.732 46.5884 193.911 42.8078 189.191 42.8078C184.471 42.8078 180.649 46.5884 180.649 51.2283Z" fill="url(#paint2_linear)"/>
<path fill-rule="evenodd" clip-rule="evenodd" d="M180.799 64.7189V111.032H197.582V64.7189H180.799Z" fill="url(#paint3_linear)"/>
<path fill-rule="evenodd" clip-rule="evenodd" d="M198.331 111.032H215.114V75.8887C215.638 75.8027 216.462 75.6307 217.361 75.6307C219.834 75.6307 220.958 77.2633 220.958 79.5837V111.032H237.74V79.4111C237.74 69.2723 231.897 63.8588 217.361 63.8588C209.569 63.8588 202.752 65.32 198.331 67.3818V111.032Z" fill="url(#paint4_linear)"/>
<path fill-rule="evenodd" clip-rule="evenodd" d="M255.272 43.5814H238.489V111.032H255.272V75.7168C255.872 75.4592 256.471 75.4592 257.296 75.4592C259.992 75.4592 261.116 77.0056 261.116 79.4972V111.032H277.899V94.0285C279.792 104.708 286.717 111.891 297.229 111.891C309.667 111.891 317.083 101.838 317.083 87.8314C317.083 73.9124 309.667 63.8588 297.229 63.8588C286.771 63.8588 279.8 71.0536 277.899 81.6968V79.0676C277.899 70.3033 273.329 63.9449 263.364 63.9449C259.992 63.9449 257.296 64.6324 255.272 65.4059V43.5814ZM294.007 87.4885C294.007 80.2706 294.607 75.8027 297.229 75.8027C299.851 75.8027 300.451 80.1851 300.451 87.4885C300.451 94.7054 299.851 99.0018 297.229 99.0018C294.607 99.0018 294.007 94.7918 294.007 87.4885V87.4885Z" fill="url(#paint5_linear)"/>
<path d="M56.1299 101.408C52.9084 101.408 50.96 99.6038 50.96 95.5655C50.96 90.0662 54.1072 88.7769 58.0027 88.6049V101.151C57.5537 101.408 57.0292 101.408 56.1299 101.408ZM73.6618 103.77V84.1513C74.6195 87.3133 76.896 90.1984 81.6785 92.5579C84.6754 94.018 85.2748 95.3936 85.2748 96.7685C85.2748 98.0569 84.2254 98.9157 82.8024 98.9157C80.5545 98.9157 77.8576 97.6273 76.2841 96.2524L73.6618 103.77ZM139.518 85.4262C138.918 78.8096 140.567 74.7719 144.163 74.7719C147.085 74.7719 148.284 77.9507 148.284 83.7938L139.518 85.4262ZM180.051 6.13553H163.268V80.8019C161.529 70.4668 155.539 63.859 144.912 63.859C135.18 63.859 129.11 69.1854 126.407 77.0385V64.7185H121.012V50.9709L104.23 55.6962V64.7185H100.108V66.5223C96.4931 64.5169 93.1502 63.859 87.9718 63.859C79.908 63.859 74.2349 69.4825 73.2243 77.1688C71.5527 67.5497 65.1949 63.859 56.0549 63.859C47.289 63.859 41.2947 66.093 37.9234 67.5539L41.3702 78.2943C44.3673 76.8339 48.7875 75.4588 52.7584 75.4588C56.1299 75.4588 58.0027 76.2318 58.0027 78.8096V80.1848C46.165 81.3877 35.451 84.6527 35.451 96.4239C35.451 96.8155 35.4616 97.1984 35.4808 97.5731L34.7766 95.1355C33.4281 95.9944 32.6791 96.511 30.0566 96.511C24.5873 96.511 22.5644 88.6049 22.5644 81.3022C22.5644 73.5683 24.2129 65.4915 30.2066 65.4915C32.604 65.4915 33.878 66.0075 35.0765 66.7803L38.523 54.6652C35.5263 52.2593 31.5551 51.0563 26.2357 51.0563C10.8767 51.0563 4.73291 66.5223 4.73291 81.4737C4.73291 96.5959 10.5019 111.891 26.0107 111.891C31.7049 111.891 35.5263 110.773 38.523 108.11L37.5995 104.912C40.6163 109.699 46.7332 111.891 55.4557 111.891C63.0847 111.891 69.0427 110.638 72.7986 108.749C75.679 110.508 80.3925 111.891 85.4249 111.891C96.3631 111.891 102.582 105.446 102.582 96.1657C102.582 90.8396 100.933 86.8006 93.1416 82.7616C90.7442 81.4737 89.5453 80.0128 89.5453 78.2943C89.5453 77.0058 90.4445 75.8887 92.1677 75.8887C94.2655 75.8887 96.5129 77.0913 97.7119 78.2084L100.108 71.7248V77.3493H104.23V96.8533C104.23 105.532 108.875 111.976 118.54 111.976C122.361 111.976 125.358 110.946 126.407 110.086V98.3149C125.208 98.9157 124.683 99.1737 123.485 99.1737C121.911 99.1737 121.012 98.4005 121.012 94.964V77.3493H126.3C125.266 80.4828 124.758 84.0058 124.758 87.7461C124.758 100.806 131.576 111.891 145.661 111.891C153.828 111.891 158.623 110.344 162.519 108.282L158.923 96.682C156.6 97.8853 152.779 99.0014 147.909 99.0014C143.414 99.0014 141.69 97.4554 140.717 94.2759L163.268 90.7371V111.031H180.051V6.13553ZM56.1299 102.379C57.1074 102.379 57.753 102.379 58.3819 102.018L58.8498 101.75V101.151V88.6049V87.5962L57.9705 87.6347C54.5977 87.7841 50.1139 88.7675 50.1139 95.5655C50.1139 99.9584 52.2504 102.379 56.1299 102.379V102.379ZM56.0549 64.8297C60.6485 64.8297 64.3274 65.8049 66.9889 67.7282C68.3777 68.7315 69.5303 70.0222 70.4141 71.5646C71.3407 73.1794 72.0064 75.1286 72.3937 77.3583L72.8157 79.7843V84.1513V103.77V107.68L72.4581 107.86C68.537 109.833 62.4985 110.92 55.4557 110.92C51.1417 110.92 47.508 110.367 44.656 109.276C41.8036 108.185 39.6607 106.525 38.2859 104.343L36.5312 101.559L36.3259 97.5177C36.3075 97.1479 36.298 96.7801 36.298 96.4239C36.298 91.3909 38.3836 87.7211 42.6732 85.2057C46.1762 83.1514 51.0709 81.8636 58.0778 81.1513L58.8498 81.0732V80.1848V78.8096C58.8498 74.4879 54.5811 74.4879 52.7584 74.4879C48.9072 74.4879 44.7559 75.7331 41.8625 77.0179L39.01 68.128C42.6414 66.6233 48.1779 64.8297 56.0549 64.8297V64.8297ZM87.9718 64.8297C93.1783 64.8297 96.3677 65.5252 99.7404 67.3968L100.611 67.8801L99.329 71.346L97.3411 76.7241C95.9554 75.7432 94.0331 74.9174 92.1677 74.9174C89.7844 74.9174 88.6986 76.6681 88.6986 78.2943C88.6986 80.4148 90.0347 82.1637 92.7822 83.6411L92.7879 83.6447L92.7928 83.6475C96.358 85.4953 98.7481 87.427 100.1 89.5537C101.246 91.3565 101.735 93.3352 101.735 96.1663C101.735 105.267 95.4852 110.92 85.4249 110.92C80.0631 110.92 75.5927 109.356 73.1966 107.892L73.1468 107.861L74.448 104.131L76.6807 97.7297C78.3177 98.8658 80.6608 99.8872 82.8024 99.8872C84.7256 99.8872 86.1208 98.5761 86.1208 96.769C86.1208 94.5957 84.8916 93.0692 82.0129 91.6657C79.8326 90.5909 78.0858 89.3418 76.821 87.9546C75.7011 86.7257 74.9296 85.3782 74.4614 83.8338L73.5844 80.9376L74.0611 77.3139C74.5339 73.7193 76.0636 70.6322 78.485 68.3872C80.9949 66.0602 84.2751 64.8303 87.9718 64.8303V64.8297ZM120.166 52.2086V64.7185V65.6894H121.012H125.56V76.379H121.012H120.166V77.3493V94.964C120.166 96.8543 120.427 98.1219 120.99 98.9527C121.713 100.021 122.76 100.144 123.485 100.144C124.357 100.144 124.944 100.012 125.56 99.7637V109.538C124.466 110.185 121.947 111.006 118.54 111.006C116.288 111.006 114.26 110.641 112.513 109.92C110.877 109.246 109.479 108.256 108.357 106.98C106.21 104.539 105.076 101.037 105.076 96.8533V77.3493V76.379H104.23H100.955V71.7248V66.9488V66.5223V65.6894H104.23H105.076V64.7185V56.4575L120.166 52.2086ZM26.2357 52.0276C31.0013 52.0276 34.7011 53.0216 37.5185 55.0647L34.5768 65.4074C33.485 64.8597 32.196 64.5206 30.2066 64.5206C27.1503 64.5206 24.7848 66.4508 23.3644 70.1013C22.0034 73.601 21.7179 78.1237 21.7179 81.3022C21.7179 85.4568 22.3487 89.2772 23.4938 92.0594C24.954 95.606 27.2234 97.4811 30.0566 97.4811C32.2627 97.4811 33.2845 97.1213 34.2907 96.5405L34.6772 97.879L36.1125 102.85L36.7957 105.217L37.5268 107.748C34.7787 109.966 31.2859 110.92 26.0107 110.92C22.4438 110.92 19.2583 110.075 16.5429 108.409C14.0622 106.887 11.9473 104.666 10.2565 101.808C8.68987 99.1606 7.49288 95.9854 6.69738 92.3686C5.95536 88.9959 5.57941 85.3306 5.57941 81.4737C5.57941 73.5883 7.29867 66.3921 10.4208 61.2104C12.1524 58.3368 14.2973 56.0999 16.7965 54.5623C19.5296 52.8802 22.7057 52.0276 26.2357 52.0276V52.0276ZM138.769 86.5489L139.653 86.3837L148.419 84.7524L149.13 84.6195V83.7938C149.13 81.3223 149.13 73.8003 144.163 73.8003C142.653 73.8003 141.355 74.4361 140.409 75.6387C138.867 77.6009 138.268 81.0199 138.676 85.5259L138.769 86.5489ZM179.204 7.10689V110.06H164.115V90.7371V89.6254L163.153 89.7758L140.602 93.3135L139.574 93.4761L139.918 94.5983C141.102 98.4663 143.343 99.9727 147.909 99.9727C151.784 99.9727 155.553 99.2504 158.425 97.973L161.459 107.762C159.533 108.719 157.626 109.408 155.519 109.909C152.663 110.589 149.438 110.92 145.661 110.92C142.37 110.92 139.38 110.293 136.777 109.058C134.349 107.906 132.256 106.226 130.556 104.066C128.935 102.006 127.687 99.5321 126.844 96.7141C126.021 93.9604 125.605 90.9434 125.605 87.7461C125.605 84.0659 126.105 80.6833 127.092 77.6927L127.113 77.631L127.194 77.3951C128.533 73.5071 130.65 70.4528 133.488 68.3153C136.559 66.0026 140.403 64.8297 144.912 64.8297C149.857 64.8297 153.882 66.2993 156.878 69.197C159.712 71.9384 161.582 75.9053 162.437 80.9858L164.115 80.8019V7.10689H179.204Z" fill="white"/>
<path d="M189.191 42.8076C184.471 42.8076 180.65 46.5886 180.65 51.2281C180.65 55.8679 184.471 59.6489 189.191 59.6489C193.911 59.6489 197.732 55.8679 197.732 51.2281C197.732 46.5886 193.911 42.8076 189.191 42.8076V42.8076ZM189.191 43.7785C193.434 43.7785 196.886 47.1203 196.886 51.2281C196.886 55.3361 193.434 58.678 189.191 58.678C184.948 58.678 181.496 55.3361 181.496 51.2281C181.496 47.1203 184.948 43.7785 189.191 43.7785Z" fill="white"/>
<path d="M197.582 64.7183H180.799V111.031H197.582V64.7183ZM196.736 110.061H181.646V65.6892H196.736V110.061Z" fill="white"/>
<path d="M217.362 63.859C209.569 63.859 202.751 65.32 198.331 67.382V111.031H215.114V75.8887C215.638 75.8027 216.462 75.6307 217.362 75.6307C219.834 75.6307 220.957 77.2628 220.957 79.5837V111.031H237.74V79.4117C237.74 69.2725 231.896 63.859 217.362 63.859ZM217.362 64.8297C220.887 64.8297 223.959 65.1597 226.493 65.8106C228.936 66.4385 230.963 67.3871 232.518 68.6294C235.462 70.9839 236.894 74.5108 236.894 79.4117V110.06H221.804V79.5837C221.804 76.5003 220.143 74.66 217.362 74.66C216.537 74.66 215.795 74.7892 215.252 74.8837C215.159 74.8996 215.073 74.9143 214.994 74.9275L214.267 75.0462V75.8887V110.06H199.178V68.043C203.854 65.9969 210.436 64.8297 217.362 64.8297" fill="white"/>
<path d="M297.229 99.0016C294.607 99.0016 294.008 94.7917 294.008 87.4887C294.008 80.271 294.607 75.8027 297.229 75.8027C299.851 75.8027 300.451 80.1849 300.451 87.4887C300.451 94.7052 299.851 99.0016 297.229 99.0016V99.0016ZM255.272 43.5812H238.49V111.032H255.272V75.7166C255.871 75.459 256.471 75.459 257.295 75.459C259.992 75.459 261.116 77.0061 261.116 79.497V111.032H277.899V94.0283C279.791 104.708 286.717 111.891 297.229 111.891C309.667 111.891 317.083 101.838 317.083 87.8314C317.083 73.9122 309.667 63.8593 297.229 63.8593C286.772 63.8593 279.8 71.0534 277.899 81.6966V79.0674C277.899 70.3031 273.329 63.9453 263.364 63.9453C259.992 63.9453 257.295 64.6322 255.272 65.4059V43.5812ZM297.229 99.9729C300.983 99.9729 301.297 93.8051 301.297 87.4887C301.297 81.0841 300.983 74.8315 297.229 74.8315C295.57 74.8315 294.423 76.1282 293.818 78.6849C293.364 80.6055 293.161 83.3207 293.161 87.4887C293.161 93.8051 293.475 99.9729 297.229 99.9729V99.9729ZM297.229 64.8295C302.983 64.8295 307.813 67.0608 311.197 71.2824C312.819 73.3074 314.076 75.7476 314.932 78.5361C315.798 81.3591 316.237 84.4866 316.237 87.8314C316.237 91.1986 315.798 94.3433 314.932 97.1792C314.076 99.9782 312.819 102.427 311.196 104.457C307.816 108.685 302.987 110.92 297.229 110.92C287.54 110.92 280.624 104.533 278.729 93.8351L277.666 87.8394L278.729 81.8908C279.641 76.7781 281.774 72.504 284.895 69.5338C286.481 68.025 288.312 66.8594 290.337 66.0689C292.442 65.247 294.761 64.8295 297.229 64.8295V64.8295ZM254.426 44.5519V65.4059V66.7523L255.54 66.3269C257.989 65.3903 260.621 64.9156 263.364 64.9156C267.914 64.9156 271.417 66.261 273.776 68.9129C275.919 71.3231 277.053 74.8344 277.053 79.0674V81.6966V84.3738V94.0283V110.061H261.963V79.497C261.963 76.2667 260.306 74.4876 257.295 74.4876C256.414 74.4876 255.718 74.4876 254.975 74.808L254.426 75.0444V75.7166V110.061H239.337V44.5519H254.426Z" fill="white"/>
<path d="M31.1256 127.12C33.0136 126.841 34.9719 126.609 37.0001 126.422C39.0283 126.237 40.9464 126.143 42.7538 126.143C47.6141 126.143 51.259 127.202 53.6894 129.319C56.1193 131.435 57.3341 134.402 57.3341 138.217C57.3341 139.659 57.194 140.915 56.9125 141.986C56.6317 143.055 56.2899 143.974 55.8884 144.742C55.4867 145.51 55.065 146.126 54.6227 146.592C54.1811 147.057 53.8194 147.429 53.5386 147.708L60.4072 162.922C59.6039 163.108 58.7099 163.248 57.7258 163.341C56.7418 163.434 55.7876 163.481 54.8642 163.481C53.7393 163.481 52.6546 163.434 51.6106 163.341C50.5664 163.248 49.7024 163.108 49.0199 162.922L42.3321 146.452L43.1754 145.894C44.5813 144.963 45.5453 143.974 46.0676 142.928C46.59 141.881 46.8509 140.752 46.8509 139.543C46.8509 138.333 46.5394 137.344 45.9169 136.577C45.2943 135.81 44.3003 135.425 42.9345 135.425C42.1713 135.425 41.5889 135.472 41.1874 135.565V162.992C40.1432 163.225 39.1991 163.375 38.3558 163.446C37.5125 163.515 36.7692 163.55 36.1268 163.55C35.4435 163.55 34.7004 163.515 33.897 163.446C33.0938 163.375 32.1698 163.225 31.1256 162.992V127.12ZM67.1691 150.888C67.5448 152.511 68.2026 153.659 69.1425 154.332C70.0823 155.005 71.3214 155.342 72.8597 155.342C73.8508 155.342 74.9615 155.203 76.1917 154.926C77.4227 154.648 78.6357 154.233 79.8319 153.679C80.3107 154.708 80.7294 155.936 81.088 157.361C81.4467 158.786 81.6434 160.27 81.6775 161.815C78.6357 163.121 75.5258 163.774 72.3468 163.774C69.8862 163.774 67.7756 163.378 66.0153 162.587C64.255 161.795 62.8199 160.696 61.7092 159.291C60.598 157.885 59.7781 156.213 59.2481 154.273C58.718 152.333 58.4537 150.215 58.4537 147.918C58.4537 145.662 58.7269 143.544 59.274 141.564C59.8204 139.585 60.6408 137.863 61.7346 136.398C62.8282 134.933 64.1956 133.775 65.8358 132.924C67.4765 132.073 69.3905 131.647 71.5777 131.647C73.3891 131.647 75.0046 132.004 76.4226 132.716C77.8413 133.429 79.0457 134.408 80.0368 135.656C81.028 136.903 81.7889 138.407 82.3182 140.169C82.8483 141.93 83.1133 143.841 83.1133 145.899C83.1133 146.968 83.0703 147.929 82.9849 148.78C82.8996 149.631 82.8225 150.333 82.754 150.888H67.1691ZM71.2702 139.189C70.1766 139.189 69.2368 139.585 68.4504 140.376C67.6643 141.168 67.2031 142.396 67.0665 144.059H75.269C75.2007 142.673 74.8332 141.515 74.1671 140.585C73.5004 139.654 72.5352 139.189 71.2702 139.189V139.189ZM96.7085 143.821C97.7343 144.138 98.6653 144.524 99.5028 144.979C100.34 145.434 101.058 146.019 101.656 146.731C102.254 147.444 102.724 148.315 103.066 149.344C103.408 150.373 103.579 151.621 103.579 153.085C103.579 154.589 103.314 155.995 102.784 157.301C102.254 158.608 101.468 159.736 100.426 160.686C99.3833 161.637 98.1012 162.388 96.5806 162.943C95.0594 163.497 93.308 163.774 91.3257 163.774C89.685 163.774 88.1639 163.636 86.7628 163.358C85.3618 163.081 83.8748 162.607 82.3023 161.933C82.4732 159.242 83.1056 156.51 84.1994 153.738C85.2929 154.332 86.4382 154.778 87.6344 155.074C88.8305 155.372 90.0265 155.52 91.2233 155.52C91.6332 155.52 92.0607 155.5 92.5047 155.46C92.9493 155.421 93.3422 155.331 93.6837 155.193C94.026 155.055 94.3073 154.867 94.5301 154.629C94.7521 154.391 94.8633 154.075 94.8633 153.679C94.8633 153.164 94.6408 152.778 94.1967 152.521C93.752 152.264 93.2397 152.036 92.6585 151.838L89.1726 150.71C87.3612 150.116 85.857 149.106 84.6609 147.681C83.4649 146.256 82.8666 144.316 82.8666 141.862C82.8666 140.317 83.1399 138.912 83.687 137.645C84.2334 136.378 85.0026 135.299 85.9937 134.408C86.9849 133.518 88.1556 132.835 89.5055 132.36C90.8557 131.885 92.351 131.647 93.9918 131.647C95.2902 131.647 96.7085 131.806 98.2467 132.122C99.7849 132.439 101.306 132.895 102.81 133.488C102.741 134.755 102.519 136.111 102.143 137.556C101.767 139.001 101.34 140.278 100.861 141.386C99.9386 140.951 98.8278 140.555 97.5288 140.198C96.2303 139.842 95.0341 139.664 93.9406 139.664C92.3339 139.664 91.5307 140.179 91.5307 141.208C91.5307 141.644 91.7186 141.98 92.0949 142.218C92.4705 142.455 92.8976 142.653 93.3763 142.812L96.7085 143.821ZM110.56 140.733H102.973C102.802 139.941 102.691 139.199 102.639 138.506C102.588 137.814 102.563 137.15 102.563 136.517C102.563 135.883 102.588 135.23 102.639 134.557C102.691 133.884 102.802 133.152 102.973 132.36H126.812C126.983 133.152 127.094 133.884 127.145 134.557C127.197 135.23 127.222 135.883 127.222 136.517C127.222 137.15 127.197 137.814 127.145 138.506C127.094 139.199 126.983 139.941 126.812 140.733H119.224V163.002C118.336 163.161 117.533 163.279 116.815 163.358C116.097 163.437 115.448 163.477 114.867 163.477C114.286 163.477 113.636 163.437 112.919 163.358C112.201 163.279 111.415 163.161 110.56 163.002V140.733ZM126.156 153.026C126.156 151.086 126.515 149.483 127.233 148.215C127.95 146.948 128.873 145.939 130.001 145.187C131.129 144.435 132.376 143.91 133.743 143.613C135.11 143.317 136.443 143.168 137.742 143.168H140.869C140.835 142.455 140.664 141.862 140.357 141.386C140.049 140.911 139.656 140.545 139.177 140.288C138.699 140.031 138.169 139.852 137.588 139.753C137.007 139.654 136.409 139.605 135.794 139.605C134.974 139.605 134.017 139.713 132.923 139.931C131.83 140.149 130.701 140.495 129.539 140.971C129.232 140.297 128.967 139.684 128.745 139.13C128.523 138.576 128.351 138.011 128.232 137.437C128.112 136.863 128.027 136.269 127.976 135.656C127.924 135.042 127.898 134.339 127.898 133.547C129.539 132.914 131.171 132.439 132.795 132.122C134.418 131.806 135.879 131.647 137.178 131.647C138.956 131.647 140.562 131.895 141.997 132.39C143.433 132.884 144.655 133.646 145.663 134.676C146.671 135.705 147.449 137.022 147.996 138.625C148.542 140.228 148.816 142.139 148.816 144.356V161.755C147.517 162.19 145.945 162.626 144.1 163.062C142.254 163.497 140.306 163.715 138.255 163.715C136.477 163.715 134.845 163.527 133.359 163.151C131.872 162.774 130.599 162.171 129.539 161.339C128.48 160.508 127.651 159.409 127.053 158.044C126.455 156.678 126.156 155.005 126.156 153.026V153.026ZM138.255 156.351C138.563 156.351 139.007 156.312 139.588 156.233C140.169 156.153 140.596 156.074 140.869 155.995V149.463H137.947C136.751 149.463 135.743 149.76 134.922 150.353C134.102 150.947 133.692 151.779 133.692 152.848C133.692 153.639 133.846 154.263 134.153 154.718C134.461 155.173 134.845 155.52 135.307 155.757C135.768 155.995 136.264 156.153 136.794 156.233C137.324 156.312 137.811 156.351 138.255 156.351V156.351ZM174.151 161.637C173.571 161.874 172.879 162.111 172.075 162.349C171.272 162.587 170.418 162.814 169.512 163.032C168.606 163.25 167.675 163.418 166.718 163.536C165.761 163.656 164.821 163.715 163.898 163.715C162.155 163.715 160.48 163.556 158.874 163.24C157.268 162.923 155.858 162.28 154.644 161.31C153.431 160.34 152.466 158.934 151.748 157.093C151.03 155.252 150.671 152.788 150.671 149.7V132.36C151.423 132.162 152.167 132.023 152.901 131.944C153.636 131.865 154.346 131.826 155.029 131.826C155.678 131.826 156.379 131.865 157.131 131.944C157.882 132.023 158.618 132.162 159.335 132.36V148.869C159.335 151.244 159.677 152.867 160.361 153.738C161.044 154.609 162.087 155.045 163.488 155.045C164.069 155.045 164.513 155.025 164.821 154.986C165.128 154.946 165.351 154.906 165.487 154.867V132.36C166.239 132.162 166.982 132.023 167.717 131.944C168.452 131.865 169.162 131.826 169.845 131.826C170.495 131.826 171.195 131.865 171.947 131.944C172.699 132.023 173.434 132.162 174.151 132.36V161.637ZM176.52 132.479C178.126 132.241 179.792 132.043 181.519 131.885C183.245 131.727 184.877 131.647 186.414 131.647C190.55 131.647 193.652 132.548 195.72 134.349C197.787 136.151 198.822 138.674 198.822 141.921C198.822 143.148 198.701 144.217 198.462 145.128C198.223 146.038 197.933 146.82 197.591 147.473C197.249 148.126 196.89 148.651 196.514 149.047C196.139 149.443 195.831 149.76 195.591 149.997L201.436 162.943C200.753 163.101 199.992 163.22 199.154 163.299C198.317 163.378 197.505 163.418 196.719 163.418C195.762 163.418 194.839 163.378 193.951 163.299C193.062 163.22 192.328 163.101 191.746 162.943L186.056 148.928L186.774 148.453C187.97 147.661 188.79 146.82 189.234 145.929C189.679 145.038 189.901 144.078 189.901 143.049C189.901 142.02 189.636 141.179 189.106 140.525C188.576 139.872 187.731 139.546 186.569 139.546C185.919 139.546 185.423 139.585 185.082 139.664V163.002C184.193 163.2 183.39 163.329 182.672 163.388C181.954 163.448 181.322 163.477 180.775 163.477C180.194 163.477 179.562 163.448 178.879 163.388C178.195 163.329 177.409 163.2 176.52 163.002V132.479ZM199.959 153.026C199.959 151.086 200.318 149.483 201.036 148.215C201.754 146.948 202.676 145.939 203.804 145.187C204.932 144.435 206.179 143.91 207.547 143.613C208.914 143.317 210.246 143.168 211.546 143.168H214.673C214.639 142.455 214.468 141.862 214.16 141.386C213.852 140.911 213.46 140.545 212.981 140.288C212.503 140.031 211.973 139.852 211.392 139.753C210.811 139.654 210.212 139.605 209.597 139.605C208.777 139.605 207.82 139.713 206.727 139.931C205.633 140.149 204.505 140.495 203.343 140.971C203.035 140.297 202.77 139.684 202.548 139.13C202.326 138.576 202.155 138.011 202.035 137.437C201.916 136.863 201.83 136.269 201.779 135.656C201.728 135.042 201.702 134.339 201.702 133.547C203.343 132.914 204.975 132.439 206.598 132.122C208.222 131.806 209.683 131.647 210.981 131.647C212.759 131.647 214.365 131.895 215.801 132.39C217.236 132.884 218.458 133.646 219.467 134.676C220.475 135.705 221.252 137.022 221.799 138.625C222.346 140.228 222.619 142.139 222.619 144.356V161.755C221.32 162.19 219.748 162.626 217.903 163.062C216.057 163.497 214.109 163.715 212.058 163.715C210.281 163.715 208.649 163.527 207.162 163.151C205.675 162.774 204.402 162.171 203.343 161.339C202.283 160.508 201.455 159.409 200.856 158.044C200.258 156.678 199.959 155.005 199.959 153.026V153.026ZM212.058 156.351C212.366 156.351 212.81 156.312 213.391 156.233C213.972 156.153 214.4 156.074 214.673 155.995V149.463H211.751C210.555 149.463 209.546 149.76 208.726 150.353C207.906 150.947 207.496 151.779 207.496 152.848C207.496 153.639 207.649 154.263 207.957 154.718C208.264 155.173 208.649 155.52 209.111 155.757C209.572 155.995 210.068 156.153 210.597 156.233C211.127 156.312 211.614 156.351 212.058 156.351V156.351ZM235.497 131.766C237.001 131.766 238.505 131.914 240.008 132.211C241.513 132.509 242.871 133.132 244.084 134.082C245.298 135.032 246.289 136.398 247.058 138.179C247.827 139.961 248.211 142.317 248.211 145.246V163.002C247.323 163.2 246.52 163.329 245.802 163.388C245.084 163.448 244.452 163.477 243.905 163.477C243.324 163.477 242.674 163.448 241.957 163.388C241.239 163.329 240.436 163.2 239.547 163.002V146.315C239.547 144.217 239.205 142.712 238.522 141.802C237.838 140.891 236.796 140.436 235.394 140.436C235.019 140.436 234.617 140.475 234.189 140.555C233.762 140.634 233.498 140.714 233.395 140.793V163.002C232.506 163.2 231.703 163.329 230.986 163.388C230.268 163.448 229.635 163.477 229.089 163.477C228.508 163.477 227.858 163.448 227.141 163.388C226.423 163.329 225.619 163.2 224.731 163.002V133.844C225.927 133.369 227.38 132.904 229.089 132.449C230.797 131.993 232.934 131.766 235.497 131.766V131.766ZM256.219 140.733H248.631C248.461 139.941 248.349 139.199 248.298 138.506C248.247 137.814 248.222 137.15 248.222 136.517C248.222 135.883 248.247 135.23 248.298 134.557C248.349 133.884 248.461 133.152 248.631 132.36H272.471C272.642 133.152 272.753 133.884 272.804 134.557C272.855 135.23 272.881 135.883 272.881 136.517C272.881 137.15 272.855 137.814 272.804 138.506C272.753 139.199 272.642 139.941 272.471 140.733H264.883V163.002C263.994 163.161 263.192 163.279 262.474 163.358C261.756 163.437 261.106 163.477 260.526 163.477C259.945 163.477 259.295 163.437 258.578 163.358C257.86 163.279 257.074 163.161 256.219 163.002V140.733ZM280.581 150.888C280.957 152.511 281.615 153.659 282.555 154.332C283.495 155.005 284.734 155.342 286.272 155.342C287.263 155.342 288.374 155.203 289.604 154.926C290.835 154.648 292.048 154.233 293.244 153.679C293.723 154.708 294.142 155.936 294.5 157.361C294.859 158.786 295.056 160.27 295.09 161.815C292.048 163.121 288.938 163.774 285.759 163.774C283.298 163.774 281.188 163.378 279.428 162.587C277.667 161.795 276.232 160.696 275.121 159.291C274.01 157.885 273.19 156.213 272.66 154.273C272.13 152.333 271.866 150.215 271.866 147.918C271.866 145.662 272.139 143.544 272.686 141.564C273.233 139.585 274.053 137.863 275.147 136.398C276.24 134.933 277.608 133.775 279.248 132.924C280.889 132.073 282.803 131.647 284.99 131.647C286.801 131.647 288.417 132.004 289.835 132.716C291.253 133.429 292.458 134.408 293.449 135.656C294.44 136.903 295.201 138.407 295.73 140.169C296.26 141.93 296.526 143.841 296.526 145.899C296.526 146.968 296.482 147.929 296.397 148.78C296.312 149.631 296.235 150.333 296.166 150.888H280.581ZM284.682 139.189C283.589 139.189 282.649 139.585 281.863 140.376C281.076 141.168 280.615 142.396 280.479 144.059H288.681C288.613 142.673 288.245 141.515 287.579 140.585C286.913 139.654 285.947 139.189 284.682 139.189V139.189Z" fill="#D3D2D2" stroke="#D3D2D2" stroke-width="0.288" stroke-miterlimit="22.9256"/>
<path d="M29.6492 125.556C31.5374 125.277 33.4955 125.044 35.5237 124.858C37.552 124.673 39.47 124.579 41.2773 124.579C46.1376 124.579 49.7825 125.638 52.2129 127.755C54.6428 129.871 55.8577 132.837 55.8577 136.653C55.8577 138.095 55.7175 139.351 55.436 140.421C55.1552 141.491 54.8135 142.41 54.4119 143.178C54.0103 143.946 53.5886 144.562 53.1463 145.027C52.7047 145.493 52.3431 145.864 52.0622 146.144L58.9307 161.358C58.1274 161.544 57.2335 161.684 56.2493 161.776C55.2654 161.87 54.3112 161.916 53.3877 161.916C52.263 161.916 51.1781 161.87 50.1341 161.776C49.0899 161.684 48.226 161.544 47.5435 161.358L40.8557 144.888L41.699 144.33C43.1048 143.399 44.0689 142.41 44.5912 141.363C45.1136 140.317 45.3745 139.188 45.3745 137.979C45.3745 136.769 45.0629 135.78 44.4404 135.013C43.8179 134.245 42.8239 133.861 41.4581 133.861C40.6949 133.861 40.1125 133.908 39.7109 134V161.428C38.6667 161.66 37.7227 161.811 36.8794 161.881C36.036 161.951 35.2928 161.986 34.6503 161.986C33.9671 161.986 33.224 161.951 32.4208 161.881C31.6173 161.811 30.6934 161.66 29.6492 161.428V125.556ZM65.6926 149.324C66.0684 150.946 66.7262 152.095 67.666 152.768C68.6059 153.441 69.8451 153.777 71.3833 153.777C72.3744 153.777 73.4851 153.639 74.7153 153.362C75.9462 153.084 77.1593 152.669 78.3554 152.114C78.8343 153.144 79.2529 154.372 79.6116 155.797C79.9702 157.222 80.167 158.706 80.2011 160.251C77.1593 161.557 74.0494 162.21 70.8704 162.21C68.4098 162.21 66.2993 161.814 64.539 161.023C62.7786 160.231 61.3434 159.132 60.2328 157.726C59.1215 156.321 58.3017 154.648 57.7717 152.709C57.2416 150.768 56.9772 148.65 56.9772 146.354C56.9772 144.098 57.2504 141.979 57.7976 140C58.3442 138.021 59.1644 136.299 60.2582 134.834C61.3518 133.369 62.7191 132.211 64.3593 131.36C66.0001 130.509 67.914 130.083 70.1012 130.083C71.9127 130.083 73.5281 130.44 74.9462 131.152C76.3649 131.865 77.5693 132.844 78.5603 134.092C79.5515 135.339 80.3124 136.843 80.8417 138.605C81.3718 140.366 81.6369 142.277 81.6369 144.335C81.6369 145.404 81.5939 146.364 81.5084 147.216C81.4232 148.066 81.346 148.769 81.2777 149.324H65.6926ZM69.7938 137.625C68.7001 137.625 67.7603 138.021 66.974 138.812C66.1879 139.604 65.7269 140.832 65.5901 142.495H73.7926C73.7243 141.108 73.3568 139.951 72.6907 139.02C72.024 138.09 71.0588 137.625 69.7938 137.625V137.625ZM95.232 142.257C96.2578 142.574 97.189 142.96 98.0263 143.415C98.8638 143.87 99.5817 144.454 100.179 145.167C100.778 145.879 101.248 146.751 101.589 147.78C101.931 148.809 102.102 150.056 102.102 151.521C102.102 153.025 101.837 154.431 101.307 155.737C100.778 157.044 99.9917 158.172 98.9492 159.122C97.9069 160.072 96.6248 160.824 95.1042 161.379C93.583 161.933 91.8316 162.21 89.8493 162.21C88.2085 162.21 86.6875 162.072 85.2864 161.794C83.8853 161.517 82.3983 161.042 80.8259 160.369C80.9967 157.677 81.6292 154.945 82.7229 152.174C83.8165 152.768 84.9618 153.213 86.158 153.51C87.3541 153.807 88.5503 153.955 89.7469 153.955C90.1568 153.955 90.5842 153.936 91.0283 153.896C91.4729 153.856 91.8658 153.767 92.2073 153.629C92.5496 153.49 92.8309 153.303 93.0537 153.065C93.2757 152.827 93.3869 152.511 93.3869 152.114C93.3869 151.6 93.1643 151.214 92.7202 150.957C92.2757 150.699 91.7633 150.472 91.182 150.274L87.6962 149.146C85.8847 148.551 84.3806 147.542 83.1847 146.117C81.9885 144.692 81.3902 142.752 81.3902 140.297C81.3902 138.753 81.6634 137.348 82.2105 136.081C82.757 134.814 83.5262 133.735 84.5172 132.844C85.5084 131.954 86.6792 131.271 88.029 130.796C89.3794 130.321 90.8746 130.083 92.5153 130.083C93.8139 130.083 95.232 130.242 96.7702 130.558C98.3084 130.875 99.8291 131.33 101.333 131.924C101.265 133.191 101.043 134.547 100.666 135.992C100.291 137.437 99.8632 138.714 99.385 139.822C98.4621 139.387 97.3514 138.991 96.0524 138.634C94.7539 138.278 93.5577 138.1 92.4641 138.1C90.8574 138.1 90.0542 138.615 90.0542 139.644C90.0542 140.08 90.2422 140.416 90.6185 140.653C90.9942 140.891 91.4212 141.089 91.8999 141.248L95.232 142.257ZM109.084 139.169H101.496C101.325 138.377 101.214 137.635 101.163 136.942C101.112 136.25 101.086 135.586 101.086 134.953C101.086 134.319 101.112 133.666 101.163 132.993C101.214 132.319 101.325 131.588 101.496 130.796H125.335C125.507 131.588 125.618 132.319 125.669 132.993C125.72 133.666 125.746 134.319 125.746 134.953C125.746 135.586 125.72 136.25 125.669 136.942C125.618 137.635 125.507 138.377 125.335 139.169H117.748V161.438C116.859 161.596 116.056 161.715 115.339 161.794C114.621 161.873 113.971 161.913 113.391 161.913C112.809 161.913 112.16 161.873 111.442 161.794C110.725 161.715 109.938 161.596 109.084 161.438V139.169ZM124.679 151.461C124.679 149.521 125.038 147.918 125.756 146.651C126.474 145.384 127.396 144.375 128.525 143.623C129.652 142.87 130.9 142.346 132.267 142.049C133.634 141.752 134.967 141.604 136.266 141.604H139.393C139.359 140.891 139.188 140.297 138.881 139.822C138.573 139.347 138.18 138.981 137.701 138.724C137.223 138.466 136.693 138.288 136.112 138.189C135.531 138.09 134.932 138.041 134.318 138.041C133.497 138.041 132.54 138.149 131.447 138.367C130.353 138.585 129.225 138.931 128.063 139.407C127.755 138.733 127.49 138.12 127.268 137.565C127.046 137.011 126.875 136.447 126.755 135.873C126.636 135.299 126.551 134.705 126.499 134.092C126.448 133.478 126.422 132.775 126.422 131.983C128.063 131.35 129.695 130.875 131.318 130.558C132.942 130.242 134.403 130.083 135.702 130.083C137.479 130.083 139.086 130.33 140.521 130.826C141.956 131.32 143.179 132.082 144.187 133.112C145.195 134.141 145.972 135.458 146.519 137.061C147.066 138.664 147.339 140.574 147.339 142.791V160.191C146.041 160.626 144.468 161.062 142.623 161.497C140.777 161.933 138.829 162.151 136.778 162.151C135.001 162.151 133.369 161.963 131.883 161.587C130.396 161.21 129.122 160.606 128.063 159.775C127.003 158.944 126.175 157.845 125.576 156.48C124.978 155.114 124.679 153.441 124.679 151.461ZM136.778 154.787C137.086 154.787 137.53 154.747 138.111 154.668C138.692 154.589 139.12 154.51 139.393 154.431V147.899H136.471C135.275 147.899 134.266 148.195 133.446 148.789C132.626 149.383 132.216 150.215 132.216 151.284C132.216 152.075 132.37 152.698 132.677 153.154C132.984 153.609 133.369 153.955 133.831 154.193C134.292 154.431 134.788 154.589 135.317 154.668C135.847 154.747 136.334 154.787 136.778 154.787V154.787ZM172.675 160.072C172.094 160.31 171.402 160.547 170.599 160.785C169.796 161.023 168.941 161.25 168.035 161.467C167.13 161.686 166.199 161.854 165.242 161.972C164.285 162.092 163.345 162.151 162.422 162.151C160.679 162.151 159.004 161.992 157.397 161.675C155.791 161.359 154.381 160.716 153.168 159.746C151.954 158.776 150.989 157.37 150.271 155.529C149.554 153.688 149.195 151.224 149.195 148.136V130.796C149.947 130.598 150.69 130.459 151.425 130.38C152.159 130.301 152.869 130.262 153.552 130.262C154.202 130.262 154.903 130.301 155.655 130.38C156.406 130.459 157.141 130.598 157.859 130.796V147.304C157.859 149.68 158.201 151.303 158.884 152.174C159.568 153.045 160.61 153.481 162.011 153.481C162.593 153.481 163.037 153.461 163.345 153.421C163.652 153.382 163.874 153.342 164.011 153.303V130.796C164.763 130.598 165.506 130.459 166.241 130.38C166.976 130.301 167.685 130.262 168.369 130.262C169.018 130.262 169.719 130.301 170.471 130.38C171.223 130.459 171.958 130.598 172.675 130.796V160.072ZM175.044 130.914C176.65 130.677 178.316 130.479 180.042 130.321C181.768 130.163 183.4 130.083 184.938 130.083C189.074 130.083 192.176 130.984 194.243 132.785C196.311 134.586 197.345 137.11 197.345 140.357C197.345 141.584 197.225 142.653 196.986 143.564C196.747 144.474 196.457 145.256 196.114 145.909C195.773 146.562 195.413 147.087 195.038 147.483C194.662 147.879 194.354 148.195 194.115 148.433L199.959 161.379C199.276 161.537 198.515 161.656 197.678 161.735C196.84 161.814 196.029 161.854 195.243 161.854C194.286 161.854 193.363 161.814 192.474 161.735C191.585 161.656 190.851 161.537 190.27 161.379L184.579 147.364L185.297 146.889C186.493 146.097 187.313 145.256 187.758 144.365C188.202 143.474 188.424 142.514 188.424 141.485C188.424 140.456 188.159 139.614 187.63 138.961C187.1 138.307 186.254 137.981 185.092 137.981C184.443 137.981 183.947 138.021 183.605 138.1V161.438C182.717 161.636 181.913 161.765 181.196 161.824C180.478 161.883 179.846 161.913 179.299 161.913C178.718 161.913 178.085 161.883 177.402 161.824C176.718 161.765 175.932 161.636 175.044 161.438V130.914ZM198.483 151.461C198.483 149.521 198.842 147.918 199.559 146.651C200.277 145.384 201.2 144.375 202.328 143.623C203.456 142.87 204.703 142.346 206.07 142.049C207.437 141.752 208.77 141.604 210.069 141.604H213.196C213.162 140.891 212.991 140.297 212.684 139.822C212.376 139.347 211.983 138.981 211.504 138.724C211.026 138.466 210.496 138.288 209.915 138.189C209.334 138.09 208.736 138.041 208.121 138.041C207.301 138.041 206.344 138.149 205.25 138.367C204.157 138.585 203.028 138.931 201.866 139.407C201.559 138.733 201.294 138.12 201.072 137.565C200.85 137.011 200.678 136.447 200.559 135.873C200.439 135.299 200.354 134.705 200.303 134.092C200.251 133.478 200.226 132.775 200.226 131.983C201.866 131.35 203.498 130.875 205.122 130.558C206.745 130.242 208.206 130.083 209.505 130.083C211.282 130.083 212.889 130.33 214.324 130.826C215.76 131.32 216.982 132.082 217.99 133.112C218.998 134.141 219.776 135.458 220.323 137.061C220.869 138.664 221.142 140.574 221.142 142.791V160.191C219.844 160.626 218.272 161.062 216.427 161.497C214.581 161.933 212.633 162.151 210.582 162.151C208.804 162.151 207.172 161.963 205.686 161.587C204.199 161.21 202.926 160.606 201.866 159.775C200.807 158.944 199.978 157.845 199.38 156.48C198.782 155.114 198.483 153.441 198.483 151.461V151.461ZM210.582 154.787C210.89 154.787 211.334 154.747 211.915 154.668C212.496 154.589 212.923 154.51 213.196 154.431V147.899H210.274C209.078 147.899 208.07 148.195 207.249 148.789C206.429 149.383 206.019 150.215 206.019 151.284C206.019 152.075 206.173 152.698 206.48 153.154C206.788 153.609 207.172 153.955 207.634 154.193C208.095 154.431 208.591 154.589 209.12 154.668C209.65 154.747 210.138 154.787 210.582 154.787V154.787ZM234.02 130.202C235.524 130.202 237.029 130.35 238.532 130.647C240.036 130.944 241.395 131.568 242.608 132.518C243.821 133.468 244.812 134.834 245.581 136.615C246.35 138.397 246.735 140.752 246.735 143.682V161.438C245.846 161.636 245.043 161.765 244.325 161.824C243.607 161.883 242.975 161.913 242.428 161.913C241.848 161.913 241.198 161.883 240.48 161.824C239.762 161.765 238.96 161.636 238.071 161.438V144.751C238.071 142.653 237.729 141.148 237.046 140.238C236.362 139.327 235.32 138.872 233.918 138.872C233.542 138.872 233.141 138.911 232.713 138.991C232.286 139.07 232.021 139.149 231.919 139.228V161.438C231.03 161.636 230.227 161.765 229.509 161.824C228.792 161.883 228.159 161.913 227.612 161.913C227.031 161.913 226.382 161.883 225.664 161.824C224.946 161.765 224.143 161.636 223.255 161.438V132.28C224.45 131.805 225.903 131.34 227.612 130.885C229.321 130.429 231.457 130.202 234.02 130.202V130.202ZM254.742 139.169H247.155C246.984 138.377 246.873 137.635 246.822 136.942C246.77 136.25 246.745 135.586 246.745 134.953C246.745 134.319 246.77 133.666 246.822 132.993C246.873 132.319 246.984 131.588 247.155 130.796H270.994C271.166 131.588 271.276 132.319 271.328 132.993C271.379 133.666 271.405 134.319 271.405 134.953C271.405 135.586 271.379 136.25 271.328 136.942C271.276 137.635 271.166 138.377 270.994 139.169H263.407V161.438C262.518 161.596 261.715 161.715 260.997 161.794C260.279 161.873 259.63 161.913 259.049 161.913C258.468 161.913 257.818 161.873 257.101 161.794C256.383 161.715 255.597 161.596 254.742 161.438V139.169ZM279.105 149.324C279.48 150.946 280.138 152.095 281.078 152.768C282.018 153.441 283.257 153.777 284.795 153.777C285.787 153.777 286.897 153.639 288.128 153.362C289.358 153.084 290.572 152.669 291.768 152.114C292.246 153.144 292.665 154.372 293.024 155.797C293.382 157.222 293.579 158.706 293.613 160.251C290.572 161.557 287.461 162.21 284.283 162.21C281.822 162.21 279.711 161.814 277.951 161.023C276.191 160.231 274.756 159.132 273.645 157.726C272.534 156.321 271.714 154.648 271.184 152.709C270.654 150.768 270.389 148.65 270.389 146.354C270.389 144.098 270.663 141.979 271.21 140C271.756 138.021 272.577 136.299 273.67 134.834C274.764 133.369 276.131 132.211 277.771 131.36C279.412 130.509 281.326 130.083 283.513 130.083C285.325 130.083 286.94 130.44 288.358 131.152C289.777 131.865 290.981 132.844 291.972 134.092C292.964 135.339 293.725 136.843 294.254 138.605C294.784 140.366 295.049 142.277 295.049 144.335C295.049 145.404 295.006 146.364 294.921 147.216C294.835 148.066 294.758 148.769 294.69 149.324H279.105ZM283.206 137.625C282.112 137.625 281.172 138.021 280.386 138.812C279.6 139.604 279.139 140.832 279.002 142.495H287.205C287.136 141.108 286.769 139.951 286.103 139.02C285.436 138.09 284.471 137.625 283.206 137.625" fill="url(#paint6_linear)"/>
<defs>
<linearGradient id="paint0_linear" x1="160.906" y1="0.225732" x2="160.906" y2="116.828" gradientUnits="userSpaceOnUse">
<stop stop-color="#ED1C24"/>
<stop offset="1" stop-color="#61080E"/>
</linearGradient>
<linearGradient id="paint1_linear" x1="92.3889" y1="6.13264" x2="92.3889" y2="111.974" gradientUnits="userSpaceOnUse">
<stop stop-color="#F2EF1D"/>
<stop offset="1" stop-color="#F68712"/>
</linearGradient>
<linearGradient id="paint2_linear" x1="189.193" y1="42.8074" x2="189.193" y2="59.6482" gradientUnits="userSpaceOnUse">
<stop stop-color="#F2EF1D"/>
<stop offset="1" stop-color="#F68712"/>
</linearGradient>
<linearGradient id="paint3_linear" x1="189.193" y1="64.7185" x2="189.193" y2="111.029" gradientUnits="userSpaceOnUse">
<stop stop-color="#F2EF1D"/>
<stop offset="1" stop-color="#F68712"/>
</linearGradient>
<linearGradient id="paint4_linear" x1="218.034" y1="63.8603" x2="218.034" y2="111.029" gradientUnits="userSpaceOnUse">
<stop stop-color="#F2EF1D"/>
<stop offset="1" stop-color="#F68712"/>
</linearGradient>
<linearGradient id="paint5_linear" x1="277.784" y1="43.5791" x2="277.784" y2="111.887" gradientUnits="userSpaceOnUse">
<stop stop-color="#F2EF1D"/>
<stop offset="1" stop-color="#F68712"/>
</linearGradient>
<linearGradient id="paint6_linear" x1="163.253" y1="118.22" x2="160.823" y2="168.539" gradientUnits="userSpaceOnUse">
<stop/>
<stop offset="1" stop-color="#ED1C24"/>
</linearGradient>
</defs>
</svg>
